<svg width="26.932617" height="27.000000" viewBox="0 0 26.9326 27" fill="none" xmlns="http://www.w3.org/2000/svg" xmlns:xlink="http://www.w3.org/1999/xlink">
	<desc>
		Orange search btn
	</desc>
	<defs/>
	<path id="Vector" d="M26.51 24.28L20.41 18.16C21.88 16.2 22.67 13.81 22.67 11.36C22.67 5.09 17.58 0 11.33 0C5.08 0 0 5.09 0 11.36C0 17.63 5.08 22.73 11.33 22.73C13.78 22.73 16.16 21.93 18.12 20.46L24.22 26.58C24.53 26.86 24.94 27.01 25.35 26.99C25.76 26.98 26.16 26.81 26.45 26.52C26.75 26.22 26.91 25.83 26.93 25.41C26.94 25 26.79 24.59 26.51 24.28ZM3.23 11.36C3.23 9.76 3.71 8.19 4.6 6.85C5.49 5.52 6.75 4.47 8.23 3.86C9.71 3.25 11.34 3.09 12.91 3.4C14.48 3.71 15.93 4.48 17.06 5.62C18.19 6.76 18.96 8.2 19.28 9.78C19.59 11.35 19.43 12.98 18.81 14.47C18.2 15.95 17.16 17.22 15.83 18.11C14.5 19 12.93 19.48 11.33 19.48C9.19 19.48 7.13 18.62 5.61 17.1C4.09 15.58 3.24 13.51 3.23 11.36Z" fill="#CDA274" fill-opacity="1.000000" fill-rule="nonzero"/>
</svg>
