<svg width="52.000000" height="52.000000" viewBox="0 0 52 52" fill="none" xmlns="http://www.w3.org/2000/svg" xmlns:xlink="http://www.w3.org/1999/xlink">
	<desc>
		Phone contact icon
	</desc>
	<defs/>
	<circle id="Ellipse 4" cx="26.000000" cy="26.000000" r="26.000000" fill="#FFFFFF" fill-opacity="1.000000"/>
	<path id="Vector" d="M31.65 30.99C30.43 30.37 30.33 30.32 29.36 31.04C28.72 31.52 28.29 31.94 27.54 31.78C26.79 31.62 25.15 30.72 23.72 29.29C22.29 27.86 21.33 26.18 21.17 25.43C21.01 24.68 21.44 24.26 21.91 23.61C22.58 22.7 22.53 22.55 21.96 21.32C21.52 20.37 20.3 18.45 19.49 17.65C18.62 16.79 18.62 16.94 18.07 17.18C17.61 17.37 17.17 17.6 16.76 17.87C15.95 18.41 15.51 18.85 15.19 19.52C14.88 20.19 14.74 21.76 16.36 24.7C17.98 27.65 19.11 29.15 21.46 31.49C23.81 33.84 25.62 35.1 28.26 36.58C31.53 38.41 32.79 38.05 33.46 37.74C34.13 37.43 34.58 36.98 35.12 36.18C35.39 35.76 35.62 35.33 35.81 34.87C36.05 34.32 36.2 34.32 35.34 33.45C34.54 32.64 32.6 31.46 31.65 30.99Z" stroke="#CDA274" stroke-opacity="1.000000" stroke-width="2.000000"/>
</svg>
