<svg width="72.799805" height="54.600098" viewBox="0 0 72.7998 54.6001" fill="none" xmlns="http://www.w3.org/2000/svg" xmlns:xlink="http://www.w3.org/1999/xlink">
	<desc>
		Quote icon
	</desc>
	<defs/>
	<path id="“" d="M58 0C62.39 0 66 1.46 68.79 4.4C71.46 7.33 72.79 11.26 72.79 16.2C72.79 24.86 69.93 32.4 64.2 38.8C58.33 45.2 51.33 50.46 43.2 54.6L41.2 51.2C44.53 49.06 47.66 46.33 50.59 43C53.39 39.66 55.59 36.06 57.2 32.2L51.59 28C49.33 26.53 47.46 24.53 46 22C44.53 19.6 43.79 17.26 43.79 15C43.79 10.73 45.13 7.13 47.79 4.2C50.33 1.4 53.73 0 58 0ZM16.79 0C21.2 0 24.79 1.46 27.59 4.4C30.26 7.33 31.59 11.26 31.59 16.2C31.59 24.86 28.73 32.4 23 38.8C17.13 45.2 10.13 50.46 2 54.6L0 51.2C3.33 49.06 6.46 46.33 9.39 43C12.2 39.66 14.39 36.06 16 32.2L10.39 28C8.13 26.53 6.26 24.53 4.79 22C3.33 19.6 2.59 17.26 2.59 15C2.59 10.73 3.93 7.13 6.59 4.2C9.13 1.4 12.53 0 16.79 0Z" fill="#CDA274" fill-opacity="1.000000" fill-rule="nonzero"/>
</svg>
