<svg width="30.940430" height="23.204956" viewBox="0 0 30.9404 23.205" fill="none" xmlns="http://www.w3.org/2000/svg" xmlns:xlink="http://www.w3.org/1999/xlink">
	<desc>
		Quote icon
	</desc>
	<defs/>
	<path id="“" d="M6.29 23.2C4.41 23.2 2.88 22.58 1.7 21.33C0.56 20.08 0 18.41 0 16.31C0 12.63 1.21 9.43 3.65 6.71C6.14 3.99 9.12 1.75 12.58 0L13.42 1.44C12.01 2.35 10.68 3.51 9.43 4.93C8.24 6.34 7.3 7.87 6.62 9.52L9 11.3C9.97 11.92 10.76 12.77 11.38 13.85C12.01 14.87 12.32 15.86 12.32 16.83C12.32 18.64 11.75 20.17 10.62 21.42C9.54 22.61 8.1 23.2 6.29 23.2ZM23.79 23.2C21.92 23.2 20.4 22.58 19.2 21.33C18.07 20.08 17.5 18.41 17.5 16.31C17.5 12.63 18.72 9.43 21.16 6.71C23.65 3.99 26.63 1.75 30.08 0L30.94 1.44C29.52 2.35 28.19 3.51 26.94 4.93C25.75 6.34 24.82 7.87 24.13 9.52L26.51 11.3C27.48 11.92 28.27 12.77 28.9 13.85C29.52 14.87 29.83 15.86 29.83 16.83C29.83 18.64 29.26 20.17 28.13 21.42C27.05 22.61 25.61 23.2 23.79 23.2Z" fill="#292F36" fill-opacity="1.000000" fill-rule="nonzero"/>
</svg>
