<svg width="23.000000" height="23.000000" viewBox="0 0 23 23" fill="none" xmlns="http://www.w3.org/2000/svg" xmlns:xlink="http://www.w3.org/1999/xlink">
	<desc>
			Created with Pixso.
	</desc>
	<defs/>
	<path d="M11.5 1C5.7 1 1 5.7 1 11.5C1 17.29 5.7 22 11.5 22C17.29 22 22 17.29 22 11.5C22 5.7 17.29 1 11.5 1Z" stroke="#CDA274" stroke-opacity="1.000000" stroke-width="2.000000"/>
	<path d="M21.44 7.33C20.63 7.33 20.71 8.84 19.7 8.13C19.32 7.86 19.09 7.48 18.62 7.36C18.21 7.26 17.78 7.37 17.38 7.44C16.91 7.52 16.36 7.56 16.01 7.91C15.67 8.25 15.49 8.7 15.13 9.04C14.43 9.71 14.14 10.43 14.59 11.36C15.03 12.26 15.94 12.75 16.92 12.69C17.88 12.62 18.89 12.06 18.86 13.47C18.85 13.97 18.95 14.31 19.1 14.78C19.25 15.21 19.24 15.62 19.27 16.06C19.33 16.89 19.48 17.81 19.89 18.54L20.64 17.46C20.74 17.33 20.93 17.14 20.98 16.98C21.06 16.71 20.9 16.23 20.88 15.91C20.86 15.6 20.87 15.29 20.82 14.97C20.76 14.54 20.5 14.13 20.47 13.7C20.4 12.89 20.55 12.25 19.93 11.58C19.33 10.93 18.46 10.77 17.63 10.9C17.21 10.97 15.52 11.24 16.2 10.28C16.33 10.09 16.57 9.93 16.72 9.75C16.85 9.59 16.96 9.3 17.12 9.18C17.27 9.06 17.98 8.92 18.18 8.98C18.38 9.04 18.59 9.34 18.77 9.47C19.09 9.71 19.47 9.88 19.87 9.94C20.56 10.04 22.01 9.64 22 8.75C21.99 8.32 21.6 7.73 21.44 7.33ZM13.44 14.66C13.17 13.52 11.63 13.14 10.8 12.52C10.32 12.16 9.89 11.61 9.27 11.57C8.98 11.55 8.74 11.61 8.45 11.54C8.19 11.47 7.98 11.33 7.7 11.36C7.17 11.43 6.84 11.99 6.28 11.92C5.75 11.85 5.2 11.22 5.08 10.71C4.92 10.05 5.44 9.84 5.99 9.78C6.22 9.75 6.48 9.73 6.7 9.81C7 9.92 7.14 10.21 7.4 10.35C7.89 10.63 7.99 10.19 7.91 9.75C7.8 9.09 7.67 8.82 8.25 8.37C8.66 8.06 9 7.83 8.94 7.27C8.9 6.94 8.72 6.79 8.89 6.46C9.02 6.21 9.37 5.99 9.59 5.84C10.18 5.46 12.1 5.48 11.32 4.41C11.09 4.09 10.66 3.53 10.26 3.45C9.75 3.35 9.52 3.92 9.17 4.17C8.81 4.43 8.1 4.72 7.73 4.32C7.24 3.79 8.06 3.61 8.24 3.23C8.42 2.86 7.82 2.14 7.5 1.96L5.99 3.67C5.95 3.95 5.96 4.24 6.04 4.52C6.11 4.8 6.24 5.06 6.41 5.29C6.71 5.68 7.19 5.8 7.21 6.33C7.23 6.84 7.16 7.1 6.82 7.46C6.68 7.61 6.58 7.83 6.43 7.97C6.26 8.14 6.32 8.09 6.04 8.14C5.52 8.23 5.07 8.37 4.57 8.51C3.72 8.74 3.64 7.35 3.26 6.81L2 7.84C1.98 8.01 2.2 8.32 2.26 8.5C2.61 9.55 3.31 10.36 3.76 11.36C4.23 12.42 5.5 12.12 6.07 13.05C6.56 13.88 6.03 14.92 6.4 15.78C6.68 16.41 7.32 16.55 7.76 17.01C8.21 17.47 8.2 18.1 8.27 18.7C8.34 19.41 8.47 20.11 8.64 20.8C8.7 21.04 8.76 21.36 8.92 21.56C9.03 21.69 9.42 21.81 9.26 21.85C9.48 21.89 9.86 22.09 10.04 21.94C10.28 21.75 10.22 21.14 10.26 20.87C10.38 20.06 10.78 19.27 11.33 18.67C11.86 18.07 12.6 17.66 13.05 16.99C13.49 16.33 13.63 15.44 13.44 14.66ZM11.75 16C11.45 16.55 10.77 16.91 10.34 17.34C10.22 17.46 9.97 17.87 9.82 17.78C9.72 17.72 9.68 17.19 9.64 17.07C9.44 16.46 9.06 15.93 8.54 15.54C8.39 15.42 7.99 15.27 7.9 15.1C7.8 14.92 7.89 14.5 7.9 14.3C7.9 14.02 7.77 13.54 7.84 13.29C7.92 12.99 7.77 13.17 8.03 13.11C8.17 13.08 8.75 13.18 8.93 13.22C9.2 13.27 9.36 13.45 9.57 13.62C10.15 14.09 10.78 14.44 11.43 14.8C11.93 15.08 12.07 15.43 11.75 16ZM8.23 1.98C8.47 2.22 8.7 2.49 9.06 2.52C9.39 2.54 9.71 2.36 10.01 2.59C10.34 2.84 10.57 3.16 11.01 3.24C11.43 3.32 11.87 3.07 11.98 2.64C12.08 2.23 11.86 1.78 11.85 1.36C11.85 1.31 11.88 1.05 11.84 1.01C11.81 0.98 11.57 1.01 11.53 1.01C11.25 1.02 10.98 1.04 10.71 1.07C9.71 1.18 8.74 1.43 7.81 1.82C7.94 1.9 8.09 1.94 8.23 1.98ZM16.93 4.84C17.36 4.84 17.8 4.65 17.66 4.15C17.54 3.73 17.34 3.27 16.86 3.5C16.55 3.64 16.12 4.01 16.08 4.37C16.04 4.78 16.64 4.84 16.93 4.84ZM16.59 7.03C17.03 7.29 17.68 7.17 18.01 6.79C18.27 6.49 18.42 5.98 18.88 5.98C19.09 5.98 19.29 6.06 19.43 6.21C19.62 6.41 19.59 6.59 19.63 6.84C19.72 7.41 20.32 6.88 20.47 6.66C20.58 6.52 20.71 6.31 20.67 6.12C20.62 5.95 20.42 5.76 20.33 5.61C20.07 5.15 19.86 4.62 19.47 4.25C19.1 3.89 18.64 3.93 18.28 4.3C17.99 4.61 17.65 4.85 17.45 5.22C17.31 5.48 17.15 5.6 16.87 5.67C16.71 5.71 16.53 5.72 16.4 5.83C16.03 6.12 16.24 6.82 16.59 7.03Z" fill="#CDA274" fill-opacity="1.000000" fill-rule="nonzero"/>
</svg>
